<svg width="22" height="22" viewBox="0 0 22 22" fill="none" xmlns="http://www.w3.org/2000/svg">
<g clip-path="url(#clip0_10_24)">
<path d="M2.32832 2.32835C0.916657 3.75346 0.916656 6.0323 0.916656 10.5967V11.4034C0.916656 15.961 0.916657 18.2399 2.32832 19.6717C3.75343 21.0834 6.03227 21.0834 10.5967 21.0834H11.4033C15.961 21.0834 18.2398 21.0834 19.6717 19.6717C21.0833 18.2466 21.0833 15.9677 21.0833 11.4034V10.5967C21.0833 6.03902 21.0833 3.76019 19.6717 2.32835C18.2465 0.916687 15.9677 0.916687 11.4033 0.916687H10.5967C6.03899 0.916687 3.76016 0.916687 2.32832 2.32835ZM4.3181 7.05408H6.63055C6.70449 10.8992 8.39849 12.526 9.74293 12.8621V7.05408H11.9142V10.3681C13.2385 10.227 14.6367 8.71447 15.1073 7.04735H17.2718C17.0952 7.91028 16.7426 8.72754 16.236 9.4481C15.7294 10.1687 15.0797 10.7771 14.3275 11.2353C15.1671 11.6531 15.9086 12.2441 16.5031 12.9695C17.0975 13.6949 17.5314 14.538 17.776 15.4434H15.3896C14.8787 13.8502 13.6015 12.6134 11.9142 12.4453V15.4434H11.6453C7.04732 15.4434 4.42566 12.2974 4.3181 7.05408Z" fill="#2051F4"/>
</g>
<defs>
<clipPath id="clip0_10_24">
<rect width="22" height="22" fill="white"/>
</clipPath>
</defs>
</svg>
