<svg width="13" height="18" viewBox="0 0 13 18" fill="none" xmlns="http://www.w3.org/2000/svg">
<path d="M2.47666 1.03254L3.37416 0.745878C4.21416 0.477545 5.11249 0.911712 5.47249 1.76004L6.18916 3.45005C6.50166 4.18588 6.32833 5.05171 5.76083 5.59004L4.18333 7.08838C4.28055 7.98505 4.58166 8.86755 5.08666 9.73588C5.56689 10.5758 6.21036 11.311 6.97916 11.8984L8.87583 11.265C9.59416 11.0259 10.3767 11.3017 10.8175 11.9492L11.8442 13.4575C12.3575 14.2109 12.265 15.2492 11.6292 15.8875L10.9475 16.5717C10.2692 17.2525 9.30083 17.5 8.40416 17.22C6.2886 16.56 4.34333 14.6009 2.56833 11.3425C0.791104 8.07866 0.163882 5.30977 0.68666 3.03588C0.90666 2.07921 1.58833 1.31671 2.47833 1.03254" fill="#39D631"/>
</svg>
