<svg width="20" height="20" viewBox="0 0 20 20" fill="none" xmlns="http://www.w3.org/2000/svg">
<g clip-path="url(#clip0_10_223)">
<mask id="mask0_10_223" style="mask-type:luminance" maskUnits="userSpaceOnUse" x="0" y="0" width="20" height="20">
<path d="M15.1515 0H4.84848C2.17074 0 0 2.17074 0 4.84848V15.1515C0 17.8293 2.17074 20 4.84848 20H15.1515C17.8293 20 20 17.8293 20 15.1515V4.84848C20 2.17074 17.8293 0 15.1515 0Z" fill="white"/>
</mask>
<g mask="url(#mask0_10_223)">
<path d="M20 0H0V20H20V0Z" fill="#100943"/>
<path d="M20 10C25.5229 10 30 5.52285 30 3.8147e-06C30 -5.52285 25.5229 -10 20 -10C14.4772 -10 10 -5.52285 10 3.8147e-06C10 5.52285 14.4772 10 20 10Z" fill="#ED143B"/>
<path d="M12.354 9.54341H6.44524V7.20526H12.354C12.6991 7.20526 12.9391 7.26542 13.0595 7.37047C13.18 7.47553 13.2546 7.67038 13.2546 7.95502V8.79456C13.2546 9.09445 13.18 9.2893 13.0595 9.39436C12.9391 9.49941 12.6991 9.54432 12.354 9.54432V9.54341ZM12.7593 5.00089H3.93939V15H6.44524V11.7469H11.0633L13.2546 15H16.0606L13.6446 11.7316C14.5353 11.5996 14.9353 11.3267 15.2652 10.8768C15.595 10.427 15.7605 9.70773 15.7605 8.74786V7.99812C15.7605 7.42883 15.7002 6.97899 15.595 6.6342C15.4898 6.28939 15.3102 5.9895 15.0548 5.72012C14.7852 5.46512 14.485 5.28553 14.1246 5.16521C13.7642 5.06017 13.3139 5 12.7593 5V5.00089Z" fill="white"/>
</g>
</g>
<defs>
<clipPath id="clip0_10_223">
<rect width="20" height="20" fill="white"/>
</clipPath>
</defs>
</svg>
