<svg width="22" height="22" viewBox="0 0 22 22" fill="none" xmlns="http://www.w3.org/2000/svg">
<g clip-path="url(#clip0_10_20)">
<path fill-rule="evenodd" clip-rule="evenodd" d="M10.625 1.625C8.1386 1.625 5.75403 2.61272 3.99587 4.37087C2.23772 6.12903 1.25 8.5136 1.25 11C1.25 13.4864 2.23772 15.871 3.99587 17.6291C5.75403 19.3873 8.1386 20.375 10.625 20.375C13.1114 20.375 15.496 19.3873 17.2541 17.6291C19.0123 15.871 20 13.4864 20 11C20 8.5136 19.0123 6.12903 17.2541 4.37087C15.496 2.61272 13.1114 1.625 10.625 1.625ZM0 11C0 5.132 4.757 0.375 10.625 0.375C16.493 0.375 21.25 5.132 21.25 11C21.25 16.868 16.493 21.625 10.625 21.625C4.757 21.625 0 16.868 0 11Z" fill="#209BFF"/>
<path fill-rule="evenodd" clip-rule="evenodd" d="M10.625 21C16.148 21 20.625 16.523 20.625 11C20.625 5.477 16.148 1 10.625 1C5.102 1 0.625 5.477 0.625 11C0.625 16.523 5.102 21 10.625 21ZM15.367 7.649L14.209 15.064C14.1931 15.1663 14.152 15.263 14.0894 15.3454C14.0269 15.4279 13.9448 15.4935 13.8507 15.5365C13.7565 15.5794 13.6531 15.5983 13.5499 15.5914C13.4466 15.5845 13.3466 15.5521 13.259 15.497L9.381 13.067C9.30044 13.0165 9.23248 12.9482 9.18229 12.8675C9.13209 12.7867 9.10099 12.6955 9.09134 12.6009C9.0817 12.5063 9.09377 12.4108 9.12664 12.3215C9.1595 12.2323 9.2123 12.1517 9.281 12.086L12.499 9C12.534 8.966 12.491 8.91 12.449 8.935L7.785 11.728C7.50776 11.8957 7.17787 11.9538 6.86 11.891L5.17 11.564C4.562 11.446 4.477 10.61 5.05 10.373L14.084 6.638C14.2377 6.57477 14.4054 6.5535 14.57 6.57638C14.7346 6.59926 14.8902 6.66546 15.0208 6.7682C15.1514 6.87095 15.2524 7.00655 15.3134 7.16114C15.3744 7.31572 15.3933 7.48374 15.368 7.648" fill="#209BFF"/>
</g>
<defs>
<clipPath id="clip0_10_20">
<rect width="22" height="22" fill="white"/>
</clipPath>
</defs>
</svg>
